<svg width="415" height="122" viewBox="0 0 415 122" fill="none" xmlns="http://www.w3.org/2000/svg">
<g clip-path="url(#clip0_903_17)">
<path d="M145.74 95L120.96 22.2H136.08L147.14 55.38L154.56 80.86H155.4L162.82 55.38L174.16 22.2H188.72L163.66 95H145.74ZM223.427 96.68C218.387 96.68 213.767 95.7933 209.567 94.02C205.46 92.2467 201.96 89.7267 199.067 86.46C196.174 83.1 193.934 79.0867 192.347 74.42C190.76 69.66 189.967 64.3867 189.967 58.6C189.967 52.8133 190.76 47.5867 192.347 42.92C193.934 38.16 196.174 34.1467 199.067 30.88C201.96 27.52 205.46 24.9533 209.567 23.18C213.767 21.4067 218.387 20.52 223.427 20.52C228.467 20.52 233.04 21.4067 237.147 23.18C241.347 24.9533 244.894 27.52 247.787 30.88C250.68 34.1467 252.92 38.16 254.507 42.92C256.094 47.5867 256.887 52.8133 256.887 58.6C256.887 64.3867 256.094 69.66 254.507 74.42C252.92 79.0867 250.68 83.1 247.787 86.46C244.894 89.7267 241.347 92.2467 237.147 94.02C233.04 95.7933 228.467 96.68 223.427 96.68ZM223.427 84.08C228.654 84.08 232.854 82.4933 236.027 79.32C239.2 76.0533 240.787 71.2 240.787 64.76V52.44C240.787 46 239.2 41.1933 236.027 38.02C232.854 34.7533 228.654 33.12 223.427 33.12C218.2 33.12 214 34.7533 210.827 38.02C207.654 41.1933 206.067 46 206.067 52.44V64.76C206.067 71.2 207.654 76.0533 210.827 79.32C214 82.4933 218.2 84.08 223.427 84.08ZM288.04 95C282.72 95 278.707 93.6467 276 90.94C273.293 88.14 271.94 84.22 271.94 79.18V34.66H260.6V22.2H266.76C269.28 22.2 271.007 21.64 271.94 20.52C272.967 19.4 273.48 17.58 273.48 15.06V2.31999H287.2V22.2H302.46V34.66H287.2V82.54H301.34V95H288.04ZM341.426 96.68C336.199 96.68 331.533 95.7933 327.426 94.02C323.319 92.2467 319.819 89.7267 316.926 86.46C314.033 83.1 311.793 79.0867 310.206 74.42C308.713 69.66 307.966 64.3867 307.966 58.6C307.966 52.8133 308.713 47.5867 310.206 42.92C311.793 38.16 314.033 34.1467 316.926 30.88C319.819 27.52 323.319 24.9533 327.426 23.18C331.533 21.4067 336.199 20.52 341.426 20.52C346.746 20.52 351.413 21.4533 355.426 23.32C359.533 25.1867 362.939 27.8 365.646 31.16C368.353 34.4267 370.359 38.2533 371.666 42.64C373.066 47.0267 373.766 51.74 373.766 56.78V62.52H323.786V64.9C323.786 70.5 325.419 75.12 328.686 78.76C332.046 82.3067 336.806 84.08 342.966 84.08C347.446 84.08 351.226 83.1 354.306 81.14C357.386 79.18 359.999 76.52 362.146 73.16L371.106 81.98C368.399 86.46 364.479 90.0533 359.346 92.76C354.213 95.3733 348.239 96.68 341.426 96.68ZM341.426 32.42C338.813 32.42 336.386 32.8867 334.146 33.82C331.999 34.7533 330.133 36.06 328.546 37.74C327.053 39.42 325.886 41.4267 325.046 43.76C324.206 46.0933 323.786 48.66 323.786 51.46V52.44H357.666V51.04C357.666 45.44 356.219 40.96 353.326 37.6C350.433 34.1467 346.466 32.42 341.426 32.42ZM400.599 95C395.372 95 391.452 93.6933 388.839 91.08C386.319 88.3733 385.059 84.64 385.059 79.88V-8.6H400.319V82.54H410.399V95H400.599Z" fill="#D37643"/>
<path d="M16.8 53.04H4.16V38.8H16.8V25.04C16.8 18.32 18.56 13.0933 22.08 9.35999C25.6 5.52 30.88 3.6 37.92 3.6H51.68V17.84H34.24V38.8H51.68V53.04H34.24V122H16.8V53.04Z" fill="#D37643"/>
<path fill-rule="evenodd" clip-rule="evenodd" d="M101.911 34.8151L116.655 78.2361C117.469 80.6342 116.186 83.2383 113.788 84.0526C111.389 84.8669 108.785 83.583 107.971 81.1849L93.2268 37.7639C92.4125 35.3658 93.6965 32.7617 96.0945 31.9474C98.4926 31.1331 101.097 32.417 101.911 34.8151ZM87.606 24.6918C89.047 23.4531 90.7446 22.4642 92.6542 21.8158C100.648 19.1015 109.328 23.3812 112.043 31.3748L126.787 74.7958C129.501 82.7894 125.221 91.4699 117.228 94.1842C109.234 96.8985 100.554 92.6188 97.8394 84.6252L87.3531 53.7434C87.3358 56.7213 87.4049 60.0826 87.5834 63.8766C88.4097 81.4353 72.6802 94.0651 64.2732 94.0651C57.0906 71.383 58.1356 51.6927 73.3276 43.5036C72.576 44.4251 71.3383 48.3869 72.2981 65.023C73.2681 81.8368 68.8589 84.5118 68.8589 84.5118C68.8589 84.5118 77.509 82.219 75.3552 58.5267C73.3136 36.0694 85.7857 26.105 87.4169 24.8017C87.5066 24.7301 87.5635 24.6846 87.5834 24.6647L87.606 24.6918ZM73.8266 43.2414C73.6586 43.3274 73.4923 43.4148 73.3276 43.5036C73.6119 43.155 73.8266 43.2414 73.8266 43.2414Z" fill="#008186"/>
<rect x="18" y="106" width="394" height="16" fill="#D37643"/>
</g>
<defs>
<clipPath id="clip0_903_17">
<rect width="415" height="122" fill="white"/>
</clipPath>
</defs>
</svg>
