<svg width="400" height="400" viewBox="0 0 400 400" fill="none" xmlns="http://www.w3.org/2000/svg">
<rect width="400" height="400" fill="#A1A1A1"/>
<path d="M86.536 212.616V205.064L135.304 139.4H144.648V202.504H154.76V212.616H144.648V230.92H125.832V212.616H86.536ZM101.896 202.504H125.832V170.76L101.896 202.504ZM165.644 184.2C165.644 170.888 168.716 159.795 174.86 150.92C181.004 141.96 189.367 137.48 199.948 137.48C210.529 137.48 218.892 141.96 225.036 150.92C231.18 159.795 234.252 170.888 234.252 184.2C234.252 197.768 231.18 208.947 225.036 217.736C218.892 226.525 210.529 230.92 199.948 230.92C189.367 230.92 181.004 226.525 174.86 217.736C168.716 208.947 165.644 197.768 165.644 184.2ZM199.948 146.312C191.244 146.312 186.892 158.941 186.892 184.2C186.892 209.459 191.244 222.088 199.948 222.088C208.652 222.088 213.004 209.459 213.004 184.2C213.004 158.941 208.652 146.312 199.948 146.312ZM241.911 212.616V205.064L290.679 139.4H300.023V202.504H310.135V212.616H300.023V230.92H281.207V212.616H241.911ZM257.271 202.504H281.207V170.76L257.271 202.504Z" fill="#424242"/>
<path d="M117.304 284H110.872V269.888C110.872 267.872 110.52 266.4 109.816 265.472C109.112 264.544 108.136 264.08 106.888 264.08C106.024 264.08 105.144 264.304 104.248 264.752C103.384 265.2 102.6 265.824 101.896 266.624C101.192 267.392 100.68 268.288 100.36 269.312V284H93.928V258.848H99.736V263.504C100.376 262.416 101.192 261.504 102.184 260.768C103.176 260 104.312 259.424 105.592 259.04C106.904 258.624 108.28 258.416 109.72 258.416C111.288 258.416 112.568 258.704 113.56 259.28C114.584 259.824 115.352 260.576 115.864 261.536C116.408 262.464 116.776 263.52 116.968 264.704C117.192 265.888 117.304 267.088 117.304 268.304V284ZM134.513 284.48C132.465 284.48 130.625 284.144 128.993 283.472C127.361 282.768 125.969 281.808 124.817 280.592C123.697 279.376 122.833 277.984 122.225 276.416C121.617 274.848 121.313 273.2 121.313 271.472C121.313 269.712 121.617 268.048 122.225 266.48C122.833 264.912 123.697 263.52 124.817 262.304C125.969 261.088 127.361 260.144 128.993 259.472C130.625 258.768 132.465 258.416 134.513 258.416C136.561 258.416 138.385 258.768 139.985 259.472C141.617 260.144 143.009 261.088 144.161 262.304C145.313 263.52 146.177 264.912 146.753 266.48C147.361 268.048 147.665 269.712 147.665 271.472C147.665 273.2 147.361 274.848 146.753 276.416C146.177 277.984 145.313 279.376 144.161 280.592C143.041 281.808 141.665 282.768 140.033 283.472C138.401 284.144 136.561 284.48 134.513 284.48ZM127.937 271.472C127.937 272.944 128.225 274.256 128.801 275.408C129.377 276.528 130.161 277.408 131.153 278.048C132.145 278.688 133.265 279.008 134.513 279.008C135.729 279.008 136.833 278.688 137.825 278.048C138.817 277.376 139.601 276.48 140.177 275.36C140.785 274.208 141.089 272.896 141.089 271.424C141.089 269.984 140.785 268.688 140.177 267.536C139.601 266.384 138.817 265.488 137.825 264.848C136.833 264.208 135.729 263.888 134.513 263.888C133.265 263.888 132.145 264.224 131.153 264.896C130.161 265.536 129.377 266.432 128.801 267.584C128.225 268.704 127.937 270 127.937 271.472ZM166.703 282.704C166.159 282.928 165.503 283.184 164.735 283.472C163.967 283.76 163.135 283.984 162.239 284.144C161.375 284.336 160.495 284.432 159.599 284.432C158.415 284.432 157.327 284.224 156.335 283.808C155.343 283.392 154.543 282.736 153.935 281.84C153.359 280.912 153.071 279.712 153.071 278.24V263.792H149.759V258.848H153.071V250.688H159.503V258.848H164.783V263.792H159.503V276.08C159.535 276.944 159.775 277.568 160.223 277.952C160.671 278.336 161.231 278.528 161.903 278.528C162.575 278.528 163.231 278.416 163.871 278.192C164.511 277.968 165.023 277.776 165.407 277.616L166.703 282.704ZM183.12 284V265.088H179.808V260.192H183.12V258.656C183.12 256.576 183.456 254.784 184.128 253.28C184.832 251.744 185.808 250.56 187.056 249.728C188.336 248.896 189.824 248.48 191.52 248.48C192.544 248.48 193.568 248.608 194.592 248.864C195.648 249.12 196.688 249.488 197.712 249.968L196.416 254.816C195.936 254.56 195.376 254.352 194.736 254.192C194.096 254 193.488 253.904 192.912 253.904C191.824 253.904 190.992 254.288 190.416 255.056C189.84 255.824 189.552 256.944 189.552 258.416V260.192H195.696V265.088H189.552V284H183.12ZM210.638 284.48C208.59 284.48 206.75 284.144 205.118 283.472C203.486 282.768 202.094 281.808 200.942 280.592C199.822 279.376 198.958 277.984 198.35 276.416C197.742 274.848 197.438 273.2 197.438 271.472C197.438 269.712 197.742 268.048 198.35 266.48C198.958 264.912 199.822 263.52 200.942 262.304C202.094 261.088 203.486 260.144 205.118 259.472C206.75 258.768 208.59 258.416 210.638 258.416C212.686 258.416 214.51 258.768 216.11 259.472C217.742 260.144 219.134 261.088 220.286 262.304C221.438 263.52 222.302 264.912 222.878 266.48C223.486 268.048 223.79 269.712 223.79 271.472C223.79 273.2 223.486 274.848 222.878 276.416C222.302 277.984 221.438 279.376 220.286 280.592C219.166 281.808 217.79 282.768 216.158 283.472C214.526 284.144 212.686 284.48 210.638 284.48ZM204.062 271.472C204.062 272.944 204.35 274.256 204.926 275.408C205.502 276.528 206.286 277.408 207.278 278.048C208.27 278.688 209.39 279.008 210.638 279.008C211.854 279.008 212.958 278.688 213.95 278.048C214.942 277.376 215.726 276.48 216.302 275.36C216.91 274.208 217.214 272.896 217.214 271.424C217.214 269.984 216.91 268.688 216.302 267.536C215.726 266.384 214.942 265.488 213.95 264.848C212.958 264.208 211.854 263.888 210.638 263.888C209.39 263.888 208.27 264.224 207.278 264.896C206.286 265.536 205.502 266.432 204.926 267.584C204.35 268.704 204.062 270 204.062 271.472ZM227.891 274.592V258.848H234.323V273.2C234.323 275.12 234.675 276.576 235.379 277.568C236.083 278.528 237.123 279.008 238.499 279.008C239.331 279.008 240.147 278.848 240.947 278.528C241.779 278.176 242.531 277.664 243.203 276.992C243.907 276.32 244.499 275.472 244.979 274.448V258.848H251.411V276.8C251.411 277.472 251.523 277.952 251.747 278.24C252.003 278.528 252.403 278.704 252.947 278.768V284C252.307 284.096 251.763 284.16 251.315 284.192C250.899 284.256 250.515 284.288 250.163 284.288C249.011 284.288 248.067 284.032 247.331 283.52C246.627 282.976 246.211 282.24 246.083 281.312L245.939 279.296C244.819 280.992 243.379 282.288 241.619 283.184C239.859 284.048 237.923 284.48 235.811 284.48C233.219 284.48 231.251 283.648 229.907 281.984C228.563 280.288 227.891 277.824 227.891 274.592ZM281.179 284H274.747V269.888C274.747 267.872 274.395 266.4 273.691 265.472C272.987 264.544 272.011 264.08 270.763 264.08C269.899 264.08 269.019 264.304 268.123 264.752C267.259 265.2 266.475 265.824 265.771 266.624C265.067 267.392 264.555 268.288 264.235 269.312V284H257.803V258.848H263.611V263.504C264.251 262.416 265.067 261.504 266.059 260.768C267.051 260 268.187 259.424 269.467 259.04C270.779 258.624 272.155 258.416 273.595 258.416C275.163 258.416 276.443 258.704 277.435 259.28C278.459 259.824 279.227 260.576 279.739 261.536C280.283 262.464 280.651 263.52 280.843 264.704C281.067 265.888 281.179 267.088 281.179 268.304V284ZM285.236 271.424C285.236 268.992 285.716 266.8 286.676 264.848C287.636 262.864 288.964 261.296 290.66 260.144C292.356 258.992 294.292 258.416 296.468 258.416C298.324 258.416 299.988 258.88 301.46 259.808C302.964 260.704 304.132 261.856 304.964 263.264V248.96H311.396V276.8C311.396 277.472 311.508 277.952 311.732 278.24C311.956 278.528 312.34 278.704 312.884 278.768V284C311.764 284.224 310.852 284.336 310.148 284.336C308.996 284.336 308.036 284.048 307.268 283.472C306.532 282.896 306.116 282.144 306.02 281.216L305.924 279.632C304.996 281.2 303.732 282.4 302.132 283.232C300.564 284.064 298.916 284.48 297.188 284.48C295.46 284.48 293.86 284.144 292.388 283.472C290.948 282.8 289.684 281.872 288.596 280.688C287.54 279.504 286.708 278.128 286.1 276.56C285.524 274.96 285.236 273.248 285.236 271.424ZM304.964 274.784V268.784C304.644 267.856 304.132 267.024 303.428 266.288C302.724 265.552 301.94 264.976 301.076 264.56C300.212 264.112 299.348 263.888 298.484 263.888C297.492 263.888 296.596 264.096 295.796 264.512C294.996 264.928 294.292 265.488 293.684 266.192C293.108 266.896 292.66 267.712 292.34 268.64C292.052 269.568 291.908 270.544 291.908 271.568C291.908 272.592 292.068 273.568 292.388 274.496C292.74 275.392 293.236 276.176 293.876 276.848C294.516 277.52 295.252 278.048 296.084 278.432C296.948 278.816 297.876 279.008 298.868 279.008C299.476 279.008 300.084 278.912 300.692 278.72C301.332 278.496 301.924 278.208 302.468 277.856C303.044 277.472 303.54 277.024 303.956 276.512C304.404 275.968 304.74 275.392 304.964 274.784Z" fill="#424242"/>
</svg>
