<svg width="400" height="400" viewBox="0 0 400 400" fill="none" xmlns="http://www.w3.org/2000/svg">
<rect width="400" height="400" fill="#D37643"/>
<path d="M115.152 208.712V203.048L151.728 153.8H158.736V201.128H166.32V208.712H158.736V222.44H144.624V208.712H115.152ZM126.672 201.128H144.624V177.32L126.672 201.128ZM174.483 187.4C174.483 177.416 176.787 169.096 181.395 162.44C186.003 155.72 192.275 152.36 200.211 152.36C208.147 152.36 214.419 155.72 219.027 162.44C223.635 169.096 225.939 177.416 225.939 187.4C225.939 197.576 223.635 205.96 219.027 212.552C214.419 219.144 208.147 222.44 200.211 222.44C192.275 222.44 186.003 219.144 181.395 212.552C176.787 205.96 174.483 197.576 174.483 187.4ZM200.211 158.984C193.683 158.984 190.419 168.456 190.419 187.4C190.419 206.344 193.683 215.816 200.211 215.816C206.739 215.816 210.003 206.344 210.003 187.4C210.003 168.456 206.739 158.984 200.211 158.984ZM231.683 208.712V203.048L268.259 153.8H275.267V201.128H282.851V208.712H275.267V222.44H261.155V208.712H231.683ZM243.203 201.128H261.155V177.32L243.203 201.128Z" fill="#FCF2DC"/>
<path d="M135.728 263H130.904V252.416C130.904 250.904 130.64 249.8 130.112 249.104C129.584 248.408 128.852 248.06 127.916 248.06C127.268 248.06 126.608 248.228 125.936 248.564C125.288 248.9 124.7 249.368 124.172 249.968C123.644 250.544 123.26 251.216 123.02 251.984V263H118.196V244.136H122.552V247.628C123.032 246.812 123.644 246.128 124.388 245.576C125.132 245 125.984 244.568 126.944 244.28C127.928 243.968 128.96 243.812 130.04 243.812C131.216 243.812 132.176 244.028 132.92 244.46C133.688 244.868 134.264 245.432 134.648 246.152C135.056 246.848 135.332 247.64 135.476 248.528C135.644 249.416 135.728 250.316 135.728 251.228V263ZM148.635 263.36C147.099 263.36 145.719 263.108 144.495 262.604C143.271 262.076 142.227 261.356 141.363 260.444C140.523 259.532 139.875 258.488 139.419 257.312C138.963 256.136 138.735 254.9 138.735 253.604C138.735 252.284 138.963 251.036 139.419 249.86C139.875 248.684 140.523 247.64 141.363 246.728C142.227 245.816 143.271 245.108 144.495 244.604C145.719 244.076 147.099 243.812 148.635 243.812C150.171 243.812 151.539 244.076 152.739 244.604C153.963 245.108 155.007 245.816 155.871 246.728C156.735 247.64 157.383 248.684 157.815 249.86C158.271 251.036 158.499 252.284 158.499 253.604C158.499 254.9 158.271 256.136 157.815 257.312C157.383 258.488 156.735 259.532 155.871 260.444C155.031 261.356 153.999 262.076 152.775 262.604C151.551 263.108 150.171 263.36 148.635 263.36ZM143.703 253.604C143.703 254.708 143.919 255.692 144.351 256.556C144.783 257.396 145.371 258.056 146.115 258.536C146.859 259.016 147.699 259.256 148.635 259.256C149.547 259.256 150.375 259.016 151.119 258.536C151.863 258.032 152.451 257.36 152.883 256.52C153.339 255.656 153.567 254.672 153.567 253.568C153.567 252.488 153.339 251.516 152.883 250.652C152.451 249.788 151.863 249.116 151.119 248.636C150.375 248.156 149.547 247.916 148.635 247.916C147.699 247.916 146.859 248.168 146.115 248.672C145.371 249.152 144.783 249.824 144.351 250.688C143.919 251.528 143.703 252.5 143.703 253.604ZM172.777 262.028C172.369 262.196 171.877 262.388 171.301 262.604C170.725 262.82 170.101 262.988 169.429 263.108C168.781 263.252 168.121 263.324 167.449 263.324C166.561 263.324 165.745 263.168 165.001 262.856C164.257 262.544 163.657 262.052 163.201 261.38C162.769 260.684 162.553 259.784 162.553 258.68V247.844H160.069V244.136H162.553V238.016H167.377V244.136H171.337V247.844H167.377V257.06C167.401 257.708 167.581 258.176 167.917 258.464C168.253 258.752 168.673 258.896 169.177 258.896C169.681 258.896 170.173 258.812 170.653 258.644C171.133 258.476 171.517 258.332 171.805 258.212L172.777 262.028ZM185.09 263V248.816H182.606V245.144H185.09V243.992C185.09 242.432 185.342 241.088 185.846 239.96C186.374 238.808 187.106 237.92 188.042 237.296C189.002 236.672 190.118 236.36 191.39 236.36C192.158 236.36 192.926 236.456 193.694 236.648C194.486 236.84 195.266 237.116 196.034 237.476L195.062 241.112C194.702 240.92 194.282 240.764 193.802 240.644C193.322 240.5 192.866 240.428 192.434 240.428C191.618 240.428 190.994 240.716 190.562 241.292C190.13 241.868 189.914 242.708 189.914 243.812V245.144H194.522V248.816H189.914V263H185.09ZM205.728 263.36C204.192 263.36 202.812 263.108 201.588 262.604C200.364 262.076 199.32 261.356 198.456 260.444C197.616 259.532 196.968 258.488 196.512 257.312C196.056 256.136 195.828 254.9 195.828 253.604C195.828 252.284 196.056 251.036 196.512 249.86C196.968 248.684 197.616 247.64 198.456 246.728C199.32 245.816 200.364 245.108 201.588 244.604C202.812 244.076 204.192 243.812 205.728 243.812C207.264 243.812 208.632 244.076 209.832 244.604C211.056 245.108 212.1 245.816 212.964 246.728C213.828 247.64 214.476 248.684 214.908 249.86C215.364 251.036 215.592 252.284 215.592 253.604C215.592 254.9 215.364 256.136 214.908 257.312C214.476 258.488 213.828 259.532 212.964 260.444C212.124 261.356 211.092 262.076 209.868 262.604C208.644 263.108 207.264 263.36 205.728 263.36ZM200.796 253.604C200.796 254.708 201.012 255.692 201.444 256.556C201.876 257.396 202.464 258.056 203.208 258.536C203.952 259.016 204.792 259.256 205.728 259.256C206.64 259.256 207.468 259.016 208.212 258.536C208.956 258.032 209.544 257.36 209.976 256.52C210.432 255.656 210.66 254.672 210.66 253.568C210.66 252.488 210.432 251.516 209.976 250.652C209.544 249.788 208.956 249.116 208.212 248.636C207.468 248.156 206.64 247.916 205.728 247.916C204.792 247.916 203.952 248.168 203.208 248.672C202.464 249.152 201.876 249.824 201.444 250.688C201.012 251.528 200.796 252.5 200.796 253.604ZM218.668 255.944V244.136H223.492V254.9C223.492 256.34 223.756 257.432 224.284 258.176C224.812 258.896 225.592 259.256 226.624 259.256C227.248 259.256 227.86 259.136 228.46 258.896C229.084 258.632 229.648 258.248 230.152 257.744C230.68 257.24 231.124 256.604 231.484 255.836V244.136H236.308V257.6C236.308 258.104 236.392 258.464 236.56 258.68C236.752 258.896 237.052 259.028 237.46 259.076V263C236.98 263.072 236.572 263.12 236.236 263.144C235.924 263.192 235.636 263.216 235.372 263.216C234.508 263.216 233.8 263.024 233.248 262.64C232.72 262.232 232.408 261.68 232.312 260.984L232.204 259.472C231.364 260.744 230.284 261.716 228.964 262.388C227.644 263.036 226.192 263.36 224.608 263.36C222.664 263.36 221.188 262.736 220.18 261.488C219.172 260.216 218.668 258.368 218.668 255.944ZM258.634 263H253.81V252.416C253.81 250.904 253.546 249.8 253.018 249.104C252.49 248.408 251.758 248.06 250.822 248.06C250.174 248.06 249.514 248.228 248.842 248.564C248.194 248.9 247.606 249.368 247.078 249.968C246.55 250.544 246.166 251.216 245.926 251.984V263H241.102V244.136H245.458V247.628C245.938 246.812 246.55 246.128 247.294 245.576C248.038 245 248.89 244.568 249.85 244.28C250.834 243.968 251.866 243.812 252.946 243.812C254.122 243.812 255.082 244.028 255.826 244.46C256.594 244.868 257.17 245.432 257.554 246.152C257.962 246.848 258.238 247.64 258.382 248.528C258.55 249.416 258.634 250.316 258.634 251.228V263ZM261.677 253.568C261.677 251.744 262.037 250.1 262.757 248.636C263.477 247.148 264.473 245.972 265.745 245.108C267.017 244.244 268.469 243.812 270.101 243.812C271.493 243.812 272.741 244.16 273.845 244.856C274.973 245.528 275.849 246.392 276.473 247.448V236.72H281.297V257.6C281.297 258.104 281.381 258.464 281.549 258.68C281.717 258.896 282.005 259.028 282.413 259.076V263C281.573 263.168 280.889 263.252 280.361 263.252C279.497 263.252 278.777 263.036 278.201 262.604C277.649 262.172 277.337 261.608 277.265 260.912L277.193 259.724C276.497 260.9 275.549 261.8 274.349 262.424C273.173 263.048 271.937 263.36 270.641 263.36C269.345 263.36 268.145 263.108 267.041 262.604C265.961 262.1 265.013 261.404 264.197 260.516C263.405 259.628 262.781 258.596 262.325 257.42C261.893 256.22 261.677 254.936 261.677 253.568ZM276.473 256.088V251.588C276.233 250.892 275.849 250.268 275.321 249.716C274.793 249.164 274.205 248.732 273.557 248.42C272.909 248.084 272.261 247.916 271.613 247.916C270.869 247.916 270.197 248.072 269.597 248.384C268.997 248.696 268.469 249.116 268.013 249.644C267.581 250.172 267.245 250.784 267.005 251.48C266.789 252.176 266.681 252.908 266.681 253.676C266.681 254.444 266.801 255.176 267.041 255.872C267.305 256.544 267.677 257.132 268.157 257.636C268.637 258.14 269.189 258.536 269.813 258.824C270.461 259.112 271.157 259.256 271.901 259.256C272.357 259.256 272.813 259.184 273.269 259.04C273.749 258.872 274.193 258.656 274.601 258.392C275.033 258.104 275.405 257.768 275.717 257.384C276.053 256.976 276.305 256.544 276.473 256.088Z" fill="#FCF2DC"/>
</svg>
