<svg width="368" height="120" viewBox="0 0 368 120" fill="none" xmlns="http://www.w3.org/2000/svg">
<g clip-path="url(#clip0_1001_20)">
<path fill-rule="evenodd" clip-rule="evenodd" d="M122.278 87.6784L109.128 48.9516C108.402 46.8128 109.547 44.4902 111.686 43.7639C113.825 43.0376 116.147 44.1827 116.874 46.3216L130.024 85.0484C130.75 87.1872 129.605 89.5098 127.466 90.2361C125.327 90.9624 123.005 89.8173 122.278 87.6784ZM135.037 96.7073C133.752 97.8121 132.238 98.6941 130.534 99.2724C123.405 101.693 115.663 97.8762 113.242 90.7468L100.092 52.02C97.671 44.8906 101.488 37.1485 108.617 34.7276C115.747 32.3067 123.489 36.1238 125.91 43.2532L135.262 70.7963C135.278 68.1404 135.216 65.1426 135.057 61.7588C134.32 46.0983 148.349 34.8338 155.847 34.8338C162.253 55.0639 161.321 72.6255 147.772 79.9293C148.442 79.1073 149.546 75.5739 148.69 60.7363C147.825 45.7401 151.757 43.3544 151.757 43.3544C151.757 43.3544 144.042 45.3993 145.963 66.5303C147.784 86.5597 136.66 95.4469 135.206 96.6093C135.126 96.6732 135.075 96.7138 135.057 96.7315L135.037 96.7073ZM147.327 80.1631C147.476 80.0864 147.625 80.0084 147.772 79.9293C147.518 80.2401 147.327 80.1631 147.327 80.1631Z" fill="#008186"/>
<path fill-rule="evenodd" clip-rule="evenodd" d="M82.7811 46.3216L95.9313 85.0484C96.6575 87.1872 95.5124 89.5099 93.3736 90.2361C91.2348 90.9624 88.9122 89.8173 88.1859 87.6785L75.0357 48.9516C74.3094 46.8128 75.4546 44.4902 77.5934 43.7639C79.7322 43.0376 82.0548 44.1827 82.7811 46.3216ZM70.0226 37.2927C71.3078 36.1879 72.8219 35.306 74.525 34.7276C81.6544 32.3068 89.3965 36.1238 91.8173 43.2532L104.968 81.98C107.388 89.1095 103.571 96.8515 96.442 99.2724C89.3126 101.693 81.5705 97.8762 79.1496 90.7468L69.797 63.2037C69.7816 65.8596 69.8432 68.8575 70.0024 72.2413C70.7394 87.9017 56.7103 99.1662 49.2122 99.1662C42.8061 78.9361 43.7382 61.3745 57.2878 54.0707C56.6175 54.8927 55.5135 58.4261 56.3696 73.2637C57.2347 88.2599 53.3022 90.6456 53.3022 90.6456C53.3022 90.6456 61.0171 88.6007 59.0961 67.4698C57.2753 47.4403 68.399 38.5531 69.8539 37.3907C69.9339 37.3268 69.9846 37.2862 70.0024 37.2685L70.0226 37.2927ZM57.7328 53.8369C57.583 53.9136 57.4347 53.9916 57.2878 54.0707C57.5413 53.7599 57.7328 53.8369 57.7328 53.8369Z" fill="#008186"/>
<rect y="108" width="368" height="12" fill="#008186"/>
<path d="M0 98.1928V93.012L10.2779 90.6024V44.4578H0.120916V38.7952L10.2779 38.0723V29.0361C10.2779 9.67872 18.0972 0 33.7357 0C37.1213 0 40.5876 0.361446 44.1345 1.08434C47.762 1.72691 50.5028 2.36948 52.3568 3.01205L55.1379 3.9759C55.0573 6.70683 54.2915 9.11647 52.8405 11.2048C51.4701 13.2932 49.7773 14.8594 47.762 15.9036L35.9122 6.62651C32.5265 6.62651 29.7857 8.23293 27.6899 11.4458C25.6746 14.5783 24.6669 20.4418 24.6669 29.0361V37.1084L43.0462 35.7831V44.4578H24.6669V90.6024L40.7488 93.012V98.1928H0Z" fill="#D37643"/>
<path d="M194.834 36.1446C203.701 36.1446 211.036 39.1566 216.84 45.1807C222.644 51.1245 225.546 58.7149 225.546 67.9518C225.546 77.2691 222.644 84.9397 216.84 90.9638C211.036 96.9879 203.701 100 194.834 100C185.966 100 178.591 96.9879 172.706 90.9638C166.902 84.9397 164 77.2691 164 67.9518C164 58.7149 166.902 51.1245 172.706 45.1807C178.591 39.1566 185.966 36.1446 194.834 36.1446ZM194.834 42.7711C189.836 42.7711 185.966 45.0602 183.226 49.6385C180.566 54.2169 179.235 60.3213 179.235 67.9518C179.235 75.5823 180.566 81.7269 183.226 86.3855C185.966 91.0442 189.836 93.3735 194.834 93.3735C199.832 93.3735 203.661 91.0442 206.321 86.3855C209.061 81.6466 210.432 75.502 210.432 67.9518C210.432 60.3213 209.061 54.2169 206.321 49.6385C203.661 45.0602 199.832 42.7711 194.834 42.7711Z" fill="#D37643"/>
<path d="M228.5 45.1807V41.5663L245.67 26.988H249.298V38.6747L266.71 37.9518V45.1807H249.298V82.0482C249.298 89.1968 252.159 92.7711 257.883 92.7711C260.301 92.7711 263.203 92.0482 266.589 90.6024L268.644 96.1446C263.646 98.7149 258.487 100 253.167 100C247.363 100 242.849 98.6345 239.624 95.9036C236.48 93.0924 234.909 88.2731 234.909 81.4458V45.1807H228.5Z" fill="#D37643"/>
<path d="M271.741 67.3494C271.741 58.5141 274.28 51.1245 279.359 45.1807C284.437 39.1566 291.451 36.1446 300.398 36.1446C305.074 36.1446 309.145 37.0281 312.611 38.7952C316.158 40.4819 318.939 42.8514 320.954 45.9036C323.05 48.9558 324.582 52.3695 325.549 56.1446C326.516 59.9197 327 64.0161 327 68.4337H286.13C286.694 75.0201 288.911 80.6426 292.781 85.3012C296.65 89.8795 301.93 92.1687 308.621 92.1687C312.893 92.1687 317.528 91.245 322.526 89.3976L324.582 95.0602C317.085 98.3534 309.951 100 303.179 100C293.426 100 285.727 96.8273 280.084 90.4819C274.522 84.1365 271.741 76.4257 271.741 67.3494ZM286.13 62.5301L312.006 60.6024C311.765 55.7831 310.636 51.6064 308.621 48.0723C306.605 44.5382 303.744 42.7711 300.036 42.7711C296.005 42.7711 292.7 44.6586 290.12 48.4337C287.622 52.2088 286.291 56.9076 286.13 62.5301Z" fill="#D37643"/>
<path d="M333 98.1928V93.012L343.278 90.6024V11.5663H333V6.38555L352.347 1.80723H357.788V90.6024L368.066 93.012V98.1928H333Z" fill="#D37643"/>
</g>
<defs>
<clipPath id="clip0_1001_20">
<rect width="368" height="120" fill="white"/>
</clipPath>
</defs>
</svg>
