<svg width="400" height="200" viewBox="0 0 400 200" fill="none" xmlns="http://www.w3.org/2000/svg">
<rect width="400" height="200" fill="#D37643"/>
<path d="M115.152 108.712V103.048L151.728 53.8H158.736V101.128H166.32V108.712H158.736V122.44H144.624V108.712H115.152ZM126.672 101.128H144.624V77.32L126.672 101.128ZM174.483 87.4C174.483 77.416 176.787 69.096 181.395 62.44C186.003 55.72 192.275 52.36 200.211 52.36C208.147 52.36 214.419 55.72 219.027 62.44C223.635 69.096 225.939 77.416 225.939 87.4C225.939 97.576 223.635 105.96 219.027 112.552C214.419 119.144 208.147 122.44 200.211 122.44C192.275 122.44 186.003 119.144 181.395 112.552C176.787 105.96 174.483 97.576 174.483 87.4ZM200.211 58.984C193.683 58.984 190.419 68.456 190.419 87.4C190.419 106.344 193.683 115.816 200.211 115.816C206.739 115.816 210.003 106.344 210.003 87.4C210.003 68.456 206.739 58.984 200.211 58.984ZM231.683 108.712V103.048L268.259 53.8H275.267V101.128H282.851V108.712H275.267V122.44H261.155V108.712H231.683ZM243.203 101.128H261.155V77.32L243.203 101.128Z" fill="#FCF2DC"/>
<path d="M135.728 163H130.904V152.416C130.904 150.904 130.64 149.8 130.112 149.104C129.584 148.408 128.852 148.06 127.916 148.06C127.268 148.06 126.608 148.228 125.936 148.564C125.288 148.9 124.7 149.368 124.172 149.968C123.644 150.544 123.26 151.216 123.02 151.984V163H118.196V144.136H122.552V147.628C123.032 146.812 123.644 146.128 124.388 145.576C125.132 145 125.984 144.568 126.944 144.28C127.928 143.968 128.96 143.812 130.04 143.812C131.216 143.812 132.176 144.028 132.92 144.46C133.688 144.868 134.264 145.432 134.648 146.152C135.056 146.848 135.332 147.64 135.476 148.528C135.644 149.416 135.728 150.316 135.728 151.228V163ZM148.635 163.36C147.099 163.36 145.719 163.108 144.495 162.604C143.271 162.076 142.227 161.356 141.363 160.444C140.523 159.532 139.875 158.488 139.419 157.312C138.963 156.136 138.735 154.9 138.735 153.604C138.735 152.284 138.963 151.036 139.419 149.86C139.875 148.684 140.523 147.64 141.363 146.728C142.227 145.816 143.271 145.108 144.495 144.604C145.719 144.076 147.099 143.812 148.635 143.812C150.171 143.812 151.539 144.076 152.739 144.604C153.963 145.108 155.007 145.816 155.871 146.728C156.735 147.64 157.383 148.684 157.815 149.86C158.271 151.036 158.499 152.284 158.499 153.604C158.499 154.9 158.271 156.136 157.815 157.312C157.383 158.488 156.735 159.532 155.871 160.444C155.031 161.356 153.999 162.076 152.775 162.604C151.551 163.108 150.171 163.36 148.635 163.36ZM143.703 153.604C143.703 154.708 143.919 155.692 144.351 156.556C144.783 157.396 145.371 158.056 146.115 158.536C146.859 159.016 147.699 159.256 148.635 159.256C149.547 159.256 150.375 159.016 151.119 158.536C151.863 158.032 152.451 157.36 152.883 156.52C153.339 155.656 153.567 154.672 153.567 153.568C153.567 152.488 153.339 151.516 152.883 150.652C152.451 149.788 151.863 149.116 151.119 148.636C150.375 148.156 149.547 147.916 148.635 147.916C147.699 147.916 146.859 148.168 146.115 148.672C145.371 149.152 144.783 149.824 144.351 150.688C143.919 151.528 143.703 152.5 143.703 153.604ZM172.777 162.028C172.369 162.196 171.877 162.388 171.301 162.604C170.725 162.82 170.101 162.988 169.429 163.108C168.781 163.252 168.121 163.324 167.449 163.324C166.561 163.324 165.745 163.168 165.001 162.856C164.257 162.544 163.657 162.052 163.201 161.38C162.769 160.684 162.553 159.784 162.553 158.68V147.844H160.069V144.136H162.553V138.016H167.377V144.136H171.337V147.844H167.377V157.06C167.401 157.708 167.581 158.176 167.917 158.464C168.253 158.752 168.673 158.896 169.177 158.896C169.681 158.896 170.173 158.812 170.653 158.644C171.133 158.476 171.517 158.332 171.805 158.212L172.777 162.028ZM185.09 163V148.816H182.606V145.144H185.09V143.992C185.09 142.432 185.342 141.088 185.846 139.96C186.374 138.808 187.106 137.92 188.042 137.296C189.002 136.672 190.118 136.36 191.39 136.36C192.158 136.36 192.926 136.456 193.694 136.648C194.486 136.84 195.266 137.116 196.034 137.476L195.062 141.112C194.702 140.92 194.282 140.764 193.802 140.644C193.322 140.5 192.866 140.428 192.434 140.428C191.618 140.428 190.994 140.716 190.562 141.292C190.13 141.868 189.914 142.708 189.914 143.812V145.144H194.522V148.816H189.914V163H185.09ZM205.728 163.36C204.192 163.36 202.812 163.108 201.588 162.604C200.364 162.076 199.32 161.356 198.456 160.444C197.616 159.532 196.968 158.488 196.512 157.312C196.056 156.136 195.828 154.9 195.828 153.604C195.828 152.284 196.056 151.036 196.512 149.86C196.968 148.684 197.616 147.64 198.456 146.728C199.32 145.816 200.364 145.108 201.588 144.604C202.812 144.076 204.192 143.812 205.728 143.812C207.264 143.812 208.632 144.076 209.832 144.604C211.056 145.108 212.1 145.816 212.964 146.728C213.828 147.64 214.476 148.684 214.908 149.86C215.364 151.036 215.592 152.284 215.592 153.604C215.592 154.9 215.364 156.136 214.908 157.312C214.476 158.488 213.828 159.532 212.964 160.444C212.124 161.356 211.092 162.076 209.868 162.604C208.644 163.108 207.264 163.36 205.728 163.36ZM200.796 153.604C200.796 154.708 201.012 155.692 201.444 156.556C201.876 157.396 202.464 158.056 203.208 158.536C203.952 159.016 204.792 159.256 205.728 159.256C206.64 159.256 207.468 159.016 208.212 158.536C208.956 158.032 209.544 157.36 209.976 156.52C210.432 155.656 210.66 154.672 210.66 153.568C210.66 152.488 210.432 151.516 209.976 150.652C209.544 149.788 208.956 149.116 208.212 148.636C207.468 148.156 206.64 147.916 205.728 147.916C204.792 147.916 203.952 148.168 203.208 148.672C202.464 149.152 201.876 149.824 201.444 150.688C201.012 151.528 200.796 152.5 200.796 153.604ZM218.668 155.944V144.136H223.492V154.9C223.492 156.34 223.756 157.432 224.284 158.176C224.812 158.896 225.592 159.256 226.624 159.256C227.248 159.256 227.86 159.136 228.46 158.896C229.084 158.632 229.648 158.248 230.152 157.744C230.68 157.24 231.124 156.604 231.484 155.836V144.136H236.308V157.6C236.308 158.104 236.392 158.464 236.56 158.68C236.752 158.896 237.052 159.028 237.46 159.076V163C236.98 163.072 236.572 163.12 236.236 163.144C235.924 163.192 235.636 163.216 235.372 163.216C234.508 163.216 233.8 163.024 233.248 162.64C232.72 162.232 232.408 161.68 232.312 160.984L232.204 159.472C231.364 160.744 230.284 161.716 228.964 162.388C227.644 163.036 226.192 163.36 224.608 163.36C222.664 163.36 221.188 162.736 220.18 161.488C219.172 160.216 218.668 158.368 218.668 155.944ZM258.634 163H253.81V152.416C253.81 150.904 253.546 149.8 253.018 149.104C252.49 148.408 251.758 148.06 250.822 148.06C250.174 148.06 249.514 148.228 248.842 148.564C248.194 148.9 247.606 149.368 247.078 149.968C246.55 150.544 246.166 151.216 245.926 151.984V163H241.102V144.136H245.458V147.628C245.938 146.812 246.55 146.128 247.294 145.576C248.038 145 248.89 144.568 249.85 144.28C250.834 143.968 251.866 143.812 252.946 143.812C254.122 143.812 255.082 144.028 255.826 144.46C256.594 144.868 257.17 145.432 257.554 146.152C257.962 146.848 258.238 147.64 258.382 148.528C258.55 149.416 258.634 150.316 258.634 151.228V163ZM261.677 153.568C261.677 151.744 262.037 150.1 262.757 148.636C263.477 147.148 264.473 145.972 265.745 145.108C267.017 144.244 268.469 143.812 270.101 143.812C271.493 143.812 272.741 144.16 273.845 144.856C274.973 145.528 275.849 146.392 276.473 147.448V136.72H281.297V157.6C281.297 158.104 281.381 158.464 281.549 158.68C281.717 158.896 282.005 159.028 282.413 159.076V163C281.573 163.168 280.889 163.252 280.361 163.252C279.497 163.252 278.777 163.036 278.201 162.604C277.649 162.172 277.337 161.608 277.265 160.912L277.193 159.724C276.497 160.9 275.549 161.8 274.349 162.424C273.173 163.048 271.937 163.36 270.641 163.36C269.345 163.36 268.145 163.108 267.041 162.604C265.961 162.1 265.013 161.404 264.197 160.516C263.405 159.628 262.781 158.596 262.325 157.42C261.893 156.22 261.677 154.936 261.677 153.568ZM276.473 156.088V151.588C276.233 150.892 275.849 150.268 275.321 149.716C274.793 149.164 274.205 148.732 273.557 148.42C272.909 148.084 272.261 147.916 271.613 147.916C270.869 147.916 270.197 148.072 269.597 148.384C268.997 148.696 268.469 149.116 268.013 149.644C267.581 150.172 267.245 150.784 267.005 151.48C266.789 152.176 266.681 152.908 266.681 153.676C266.681 154.444 266.801 155.176 267.041 155.872C267.305 156.544 267.677 157.132 268.157 157.636C268.637 158.14 269.189 158.536 269.813 158.824C270.461 159.112 271.157 159.256 271.901 159.256C272.357 159.256 272.813 159.184 273.269 159.04C273.749 158.872 274.193 158.656 274.601 158.392C275.033 158.104 275.405 157.768 275.717 157.384C276.053 156.976 276.305 156.544 276.473 156.088Z" fill="#FCF2DC"/>
</svg>
