<svg width="200" height="115" viewBox="0 0 200 115" fill="none" xmlns="http://www.w3.org/2000/svg">
<g clip-path="url(#clip0_1032_2)">
<path fill-rule="evenodd" clip-rule="evenodd" d="M134.555 93.9218L111.546 26.161C110.275 22.4186 112.278 18.3547 116.021 17.084C119.763 15.8132 123.827 17.8168 125.098 21.5592L148.107 89.32C149.378 93.0623 147.374 97.1263 143.632 98.397C139.889 99.6678 135.825 97.6642 134.555 93.9218ZM156.878 109.72C154.63 111.653 151.98 113.196 149 114.208C136.526 118.444 122.98 111.765 118.744 99.2906L95.7347 31.5298C91.4989 19.0553 98.1775 5.50897 110.652 1.27311C123.126 -2.96274 136.673 3.71595 140.909 16.1904L157.273 64.3824C157.3 59.7355 157.192 54.4903 156.913 48.5699C155.624 21.1686 180.171 1.45902 193.29 1.45902C204.499 36.8558 202.868 67.5835 179.16 80.363C180.333 78.9249 182.265 72.7423 180.767 46.7809C179.253 20.5419 186.134 16.3675 186.134 16.3675C186.134 16.3675 172.635 19.9456 175.996 56.9186C179.182 91.9644 159.719 107.515 157.173 109.548C157.033 109.66 156.945 109.731 156.913 109.762L156.878 109.72ZM178.382 80.7722C178.644 80.638 178.903 80.5016 179.16 80.363C178.717 80.907 178.382 80.7722 178.382 80.7722Z" fill="#008186"/>
<path fill-rule="evenodd" clip-rule="evenodd" d="M65.4454 21.5592L88.4544 89.3201C89.7252 93.0624 87.7215 97.1263 83.9792 98.397C80.2369 99.6678 76.173 97.6642 74.9022 93.9219L51.8932 26.161C50.6224 22.4187 52.626 18.3548 56.3684 17.084C60.1107 15.8133 64.1746 17.8169 65.4454 21.5592ZM43.1218 5.76114C45.3705 3.8282 48.0197 2.28502 50.9996 1.27315C63.474 -2.9627 77.0204 3.71599 81.2562 16.1904L104.265 83.9513C108.501 96.4257 101.822 109.972 89.348 114.208C76.8736 118.444 63.3272 111.765 59.0914 99.2906L42.7272 51.0987C42.7002 55.7456 42.808 60.9907 43.0866 66.9112C44.376 94.3125 19.8292 114.022 6.70971 114.022C-4.49922 78.6253 -2.86831 47.8975 20.8396 35.118C19.6667 36.5561 17.7352 42.7387 19.233 68.7002C20.7468 94.9391 13.8659 99.1135 13.8659 99.1135C13.8659 99.1135 27.3649 95.5355 24.0037 58.5624C20.8177 23.5166 40.2811 7.96653 42.8267 5.93275C42.9667 5.8209 43.0555 5.74994 43.0866 5.71885L43.1218 5.76114ZM21.6183 34.7088C21.3562 34.8431 21.0966 34.9795 20.8396 35.118C21.2833 34.5741 21.6183 34.7088 21.6183 34.7088Z" fill="#008186"/>
</g>
<defs>
<clipPath id="clip0_1032_2">
<rect width="200" height="115" fill="white"/>
</clipPath>
</defs>
</svg>
