<svg width="200" height="200" viewBox="0 0 200 200" fill="none" xmlns="http://www.w3.org/2000/svg">
<rect width="200" height="200" fill="#008186"/>
<path d="M14.152 108.712V103.048L50.728 53.8H57.736V101.128H65.32V108.712H57.736V122.44H43.624V108.712H14.152ZM25.672 101.128H43.624V77.32L25.672 101.128ZM73.483 87.4C73.483 77.416 75.787 69.096 80.395 62.44C85.003 55.72 91.275 52.36 99.211 52.36C107.147 52.36 113.419 55.72 118.027 62.44C122.635 69.096 124.939 77.416 124.939 87.4C124.939 97.576 122.635 105.96 118.027 112.552C113.419 119.144 107.147 122.44 99.211 122.44C91.275 122.44 85.003 119.144 80.395 112.552C75.787 105.96 73.483 97.576 73.483 87.4ZM99.211 58.984C92.683 58.984 89.419 68.456 89.419 87.4C89.419 106.344 92.683 115.816 99.211 115.816C105.739 115.816 109.003 106.344 109.003 87.4C109.003 68.456 105.739 58.984 99.211 58.984ZM130.683 108.712V103.048L167.259 53.8H174.267V101.128H181.851V108.712H174.267V122.44H160.155V108.712H130.683ZM142.203 101.128H160.155V77.32L142.203 101.128Z" fill="#FCF2DC"/>
<path d="M34.728 163H29.904V152.416C29.904 150.904 29.64 149.8 29.112 149.104C28.584 148.408 27.852 148.06 26.916 148.06C26.268 148.06 25.608 148.228 24.936 148.564C24.288 148.9 23.7 149.368 23.172 149.968C22.644 150.544 22.26 151.216 22.02 151.984V163H17.196V144.136H21.552V147.628C22.032 146.812 22.644 146.128 23.388 145.576C24.132 145 24.984 144.568 25.944 144.28C26.928 143.968 27.96 143.812 29.04 143.812C30.216 143.812 31.176 144.028 31.92 144.46C32.688 144.868 33.264 145.432 33.648 146.152C34.056 146.848 34.332 147.64 34.476 148.528C34.644 149.416 34.728 150.316 34.728 151.228V163ZM47.6346 163.36C46.0986 163.36 44.7186 163.108 43.4946 162.604C42.2706 162.076 41.2266 161.356 40.3626 160.444C39.5226 159.532 38.8746 158.488 38.4186 157.312C37.9626 156.136 37.7346 154.9 37.7346 153.604C37.7346 152.284 37.9626 151.036 38.4186 149.86C38.8746 148.684 39.5226 147.64 40.3626 146.728C41.2266 145.816 42.2706 145.108 43.4946 144.604C44.7186 144.076 46.0986 143.812 47.6346 143.812C49.1706 143.812 50.5386 144.076 51.7386 144.604C52.9626 145.108 54.0066 145.816 54.8706 146.728C55.7346 147.64 56.3826 148.684 56.8146 149.86C57.2706 151.036 57.4986 152.284 57.4986 153.604C57.4986 154.9 57.2706 156.136 56.8146 157.312C56.3826 158.488 55.7346 159.532 54.8706 160.444C54.0306 161.356 52.9986 162.076 51.7746 162.604C50.5506 163.108 49.1706 163.36 47.6346 163.36ZM42.7026 153.604C42.7026 154.708 42.9186 155.692 43.3506 156.556C43.7826 157.396 44.3706 158.056 45.1146 158.536C45.8586 159.016 46.6986 159.256 47.6346 159.256C48.5466 159.256 49.3746 159.016 50.1186 158.536C50.8626 158.032 51.4506 157.36 51.8826 156.52C52.3386 155.656 52.5666 154.672 52.5666 153.568C52.5666 152.488 52.3386 151.516 51.8826 150.652C51.4506 149.788 50.8626 149.116 50.1186 148.636C49.3746 148.156 48.5466 147.916 47.6346 147.916C46.6986 147.916 45.8586 148.168 45.1146 148.672C44.3706 149.152 43.7826 149.824 43.3506 150.688C42.9186 151.528 42.7026 152.5 42.7026 153.604ZM71.7773 162.028C71.3693 162.196 70.8773 162.388 70.3013 162.604C69.7253 162.82 69.1013 162.988 68.4293 163.108C67.7813 163.252 67.1213 163.324 66.4493 163.324C65.5613 163.324 64.7453 163.168 64.0013 162.856C63.2573 162.544 62.6573 162.052 62.2013 161.38C61.7693 160.684 61.5533 159.784 61.5533 158.68V147.844H59.0693V144.136H61.5533V138.016H66.3773V144.136H70.3373V147.844H66.3773V157.06C66.4013 157.708 66.5813 158.176 66.9173 158.464C67.2533 158.752 67.6733 158.896 68.1773 158.896C68.6813 158.896 69.1733 158.812 69.6533 158.644C70.1333 158.476 70.5173 158.332 70.8053 158.212L71.7773 162.028ZM84.0902 163V148.816H81.6062V145.144H84.0902V143.992C84.0902 142.432 84.3422 141.088 84.8462 139.96C85.3742 138.808 86.1062 137.92 87.0422 137.296C88.0022 136.672 89.1182 136.36 90.3902 136.36C91.1582 136.36 91.9262 136.456 92.6942 136.648C93.4862 136.84 94.2662 137.116 95.0342 137.476L94.0622 141.112C93.7022 140.92 93.2822 140.764 92.8022 140.644C92.3222 140.5 91.8662 140.428 91.4342 140.428C90.6182 140.428 89.9942 140.716 89.5622 141.292C89.1302 141.868 88.9142 142.708 88.9142 143.812V145.144H93.5222V148.816H88.9142V163H84.0902ZM104.728 163.36C103.192 163.36 101.812 163.108 100.588 162.604C99.3643 162.076 98.3203 161.356 97.4563 160.444C96.6163 159.532 95.9683 158.488 95.5123 157.312C95.0563 156.136 94.8283 154.9 94.8283 153.604C94.8283 152.284 95.0563 151.036 95.5123 149.86C95.9683 148.684 96.6163 147.64 97.4563 146.728C98.3203 145.816 99.3643 145.108 100.588 144.604C101.812 144.076 103.192 143.812 104.728 143.812C106.264 143.812 107.632 144.076 108.832 144.604C110.056 145.108 111.1 145.816 111.964 146.728C112.828 147.64 113.476 148.684 113.908 149.86C114.364 151.036 114.592 152.284 114.592 153.604C114.592 154.9 114.364 156.136 113.908 157.312C113.476 158.488 112.828 159.532 111.964 160.444C111.124 161.356 110.092 162.076 108.868 162.604C107.644 163.108 106.264 163.36 104.728 163.36ZM99.7963 153.604C99.7963 154.708 100.012 155.692 100.444 156.556C100.876 157.396 101.464 158.056 102.208 158.536C102.952 159.016 103.792 159.256 104.728 159.256C105.64 159.256 106.468 159.016 107.212 158.536C107.956 158.032 108.544 157.36 108.976 156.52C109.432 155.656 109.66 154.672 109.66 153.568C109.66 152.488 109.432 151.516 108.976 150.652C108.544 149.788 107.956 149.116 107.212 148.636C106.468 148.156 105.64 147.916 104.728 147.916C103.792 147.916 102.952 148.168 102.208 148.672C101.464 149.152 100.876 149.824 100.444 150.688C100.012 151.528 99.7963 152.5 99.7963 153.604ZM117.668 155.944V144.136H122.492V154.9C122.492 156.34 122.756 157.432 123.284 158.176C123.812 158.896 124.592 159.256 125.624 159.256C126.248 159.256 126.86 159.136 127.46 158.896C128.084 158.632 128.648 158.248 129.152 157.744C129.68 157.24 130.124 156.604 130.484 155.836V144.136H135.308V157.6C135.308 158.104 135.392 158.464 135.56 158.68C135.752 158.896 136.052 159.028 136.46 159.076V163C135.98 163.072 135.572 163.12 135.236 163.144C134.924 163.192 134.636 163.216 134.372 163.216C133.508 163.216 132.8 163.024 132.248 162.64C131.72 162.232 131.408 161.68 131.312 160.984L131.204 159.472C130.364 160.744 129.284 161.716 127.964 162.388C126.644 163.036 125.192 163.36 123.608 163.36C121.664 163.36 120.188 162.736 119.18 161.488C118.172 160.216 117.668 158.368 117.668 155.944ZM157.634 163H152.81V152.416C152.81 150.904 152.546 149.8 152.018 149.104C151.49 148.408 150.758 148.06 149.822 148.06C149.174 148.06 148.514 148.228 147.842 148.564C147.194 148.9 146.606 149.368 146.078 149.968C145.55 150.544 145.166 151.216 144.926 151.984V163H140.102V144.136H144.458V147.628C144.938 146.812 145.55 146.128 146.294 145.576C147.038 145 147.89 144.568 148.85 144.28C149.834 143.968 150.866 143.812 151.946 143.812C153.122 143.812 154.082 144.028 154.826 144.46C155.594 144.868 156.17 145.432 156.554 146.152C156.962 146.848 157.238 147.64 157.382 148.528C157.55 149.416 157.634 150.316 157.634 151.228V163ZM160.677 153.568C160.677 151.744 161.037 150.1 161.757 148.636C162.477 147.148 163.473 145.972 164.745 145.108C166.017 144.244 167.469 143.812 169.101 143.812C170.493 143.812 171.741 144.16 172.845 144.856C173.973 145.528 174.849 146.392 175.473 147.448V136.72H180.297V157.6C180.297 158.104 180.381 158.464 180.549 158.68C180.717 158.896 181.005 159.028 181.413 159.076V163C180.573 163.168 179.889 163.252 179.361 163.252C178.497 163.252 177.777 163.036 177.201 162.604C176.649 162.172 176.337 161.608 176.265 160.912L176.193 159.724C175.497 160.9 174.549 161.8 173.349 162.424C172.173 163.048 170.937 163.36 169.641 163.36C168.345 163.36 167.145 163.108 166.041 162.604C164.961 162.1 164.013 161.404 163.197 160.516C162.405 159.628 161.781 158.596 161.325 157.42C160.893 156.22 160.677 154.936 160.677 153.568ZM175.473 156.088V151.588C175.233 150.892 174.849 150.268 174.321 149.716C173.793 149.164 173.205 148.732 172.557 148.42C171.909 148.084 171.261 147.916 170.613 147.916C169.869 147.916 169.197 148.072 168.597 148.384C167.997 148.696 167.469 149.116 167.013 149.644C166.581 150.172 166.245 150.784 166.005 151.48C165.789 152.176 165.681 152.908 165.681 153.676C165.681 154.444 165.801 155.176 166.041 155.872C166.305 156.544 166.677 157.132 167.157 157.636C167.637 158.14 168.189 158.536 168.813 158.824C169.461 159.112 170.157 159.256 170.901 159.256C171.357 159.256 171.813 159.184 172.269 159.04C172.749 158.872 173.193 158.656 173.601 158.392C174.033 158.104 174.405 157.768 174.717 157.384C175.053 156.976 175.305 156.544 175.473 156.088Z" fill="#FCF2DC"/>
</svg>
